<?xml version="1.0" encoding="UTF-8" standalone="no"?>
<svg
   version="1.1"
   id="Layer_1"
   x="0px"
   y="0px"
   width="1030.525"
   viewBox="0 0 1030.525 1044.3226"
   enable-background="new 0 0 3000 2004"
   xml:space="preserve"
   height="1044.3226"
   sodipodi:docname="Bennie Logo.svg"
   inkscape:export-filename="Bennie Logo Black Fill.png"
   inkscape:export-xdpi="96"
   inkscape:export-ydpi="96"
   inkscape:version="1.2.2 (732a01da63, 2022-12-09)"
   xmlns:inkscape="http://www.inkscape.org/namespaces/inkscape"
   xmlns:sodipodi="http://sodipodi.sourceforge.net/DTD/sodipodi-0.dtd"
   xmlns="http://www.w3.org/2000/svg"
   xmlns:svg="http://www.w3.org/2000/svg"><sodipodi:namedview
   id="namedview10"
   pagecolor="#505050"
   bordercolor="#eeeeee"
   borderopacity="1"
   inkscape:showpageshadow="0"
   inkscape:pageopacity="0"
   inkscape:pagecheckerboard="0"
   inkscape:deskcolor="#505050"
   showgrid="false"
   inkscape:zoom="0.98341257"
   inkscape:cx="515.55168"
   inkscape:cy="521.65288"
   inkscape:window-width="3840"
   inkscape:window-height="2054"
   inkscape:window-x="3829"
   inkscape:window-y="-11"
   inkscape:window-maximized="1"
   inkscape:current-layer="g299" /><defs
   id="defs65" />





























<g
   id="g299"
   transform="translate(-992.69488,-1.999996)"><path
     fill="#020101"
     opacity="1"
     stroke="none"
     d="m 1925.5139,789.48767 c -28.9778,26.65607 -57.5201,52.73663 -85.806,79.09247 -4.7404,4.41693 -9.5348,6.30786 -15.9928,6.11456 -13.9121,-0.41632 -27.8453,-0.12787 -42.5287,-0.12787 -1.0259,10.41321 -1.9965,19.92517 -2.8903,29.44434 -0.7163,7.62787 -1.6086,15.25421 -1.9005,22.90118 -0.1677,4.39777 -1.9525,7.37781 -5.0788,10.23664 -26.8098,24.51574 -53.5691,49.08764 -80.2073,73.78941 -3.6393,3.3746 -7.2603,4.9934 -12.3689,4.9897 -176.9851,-0.1299 -353.9703,-0.1091 -530.9556,-0.1202 -1.6333,-2e-4 -3.2666,-0.1423 -5.7191,-0.2562 2.6629,-8.7817 8.6242,-15.1554 12.859,-22.43579 4.1847,-7.19404 8.8521,-14.1073 13.3096,-21.14246 4.6356,-7.31659 9.2718,-14.63287 13.9114,-21.94708 4.4612,-7.03321 8.9305,-14.0611 13.3895,-21.09558 4.6373,-7.31562 9.2814,-14.62714 13.895,-21.95771 4.3677,-6.93951 8.6998,-13.90136 14.0399,-22.4403 -63.984,0 -126.0294,0 -189.4445,0 2.3355,-4.52906 3.8877,-7.73969 5.6127,-10.85468 29.3678,-53.0282 58.8294,-106.00482 88.0191,-159.13086 2.634,-4.79382 4.5315,-10.43256 5.09,-15.85205 2.6967,-26.17456 4.8265,-52.40771 7.1416,-78.62146 3.8387,-43.46838 7.6967,-86.93506 11.4873,-130.40771 2.9514,-33.85032 5.7928,-67.71021 8.7237,-101.56229 1.0055,-11.61475 1.9657,-23.23776 3.2696,-34.82065 0.7988,-7.09601 0.027,-13.62247 -2.5921,-20.4386 -20.1786,-52.51294 -40.009,-105.15979 -59.9205,-157.77521 -1.2588,-3.32603 -2.2937,-6.73671 -3.7764,-11.12527 63.5065,0 125.7164,0 189.4876,0 -20.0981,-43.94979 -39.6667,-86.741928 -59.758,-130.676964 3.8784,-0.287479 6.3806,-0.634941 8.8828,-0.635303 175.9854,-0.02535 351.9706,0.0038 527.9558,-0.139496 5.882,-0.0048 9.8519,1.893982 13.71,6.185001 21.3926,23.792244 42.9413,47.446267 64.6692,70.932522 3.9543,4.27418 5.343,8.32154 4.6683,14.23132 -1.8473,16.18436 -2.8331,32.46707 -4.2653,50.0027 8.9638,0 17.53,-0.0867 26.0936,0.0243 8.6341,0.11191 18.2458,-1.86282 25.6153,1.30135 7.0028,3.00667 11.7222,11.42021 17.337,17.55571 21.826,23.84988 43.4796,47.85968 65.5189,71.51028 4.2813,4.59436 5.7635,9.04148 5.1865,15.17035 -3.3409,35.4852 -6.3889,70.99811 -9.4978,106.50495 -2.2374,25.55291 -4.3854,51.1137 -6.6266,76.66629 -3.7839,43.13864 -7.6383,86.27115 -11.4095,129.41085 -2.9301,33.51783 -5.7831,67.04236 -8.6621,100.56464 -2.195,25.55676 -4.4438,51.10919 -6.514,76.67609 -0.4533,5.59991 -2.0285,10.2915 -6.7932,13.72046 -2.4159,1.73877 -4.4416,4.01971 -7.1654,6.53863 m -756.8409,14.25879 c 3.6477,0.16559 7.2954,0.47278 10.9432,0.47522 48.6546,0.032 97.3092,0.0137 145.9638,0.0378 3.4843,0.002 6.9687,0.237 11.1296,0.38825 -1.2584,15.18152 -2.5662,29.0885 -3.4998,43.0205 -0.4597,6.85901 -2.7568,12.72132 -6.5019,18.48163 -12.8897,19.82532 -25.4183,39.88562 -38.0342,59.88812 -1.7042,2.70221 -3.1205,5.58594 -5.3773,9.66309 4.5909,0 7.7983,0 11.0056,0 57.3191,0 114.6382,6e-5 171.9573,0 61.6513,0 123.3027,-0.0621 184.9537,0.10303 5.7091,0.0153 9.9828,-1.48548 14.1797,-5.4671 14.9868,-14.21766 30.2712,-28.12482 45.585,-41.99268 3.3942,-3.07385 5.2929,-6.2857 5.6053,-11.03998 0.8954,-13.62164 2.3121,-27.20953 3.561,-40.80731 0.9668,-10.52545 1.9894,-21.0459 3.0523,-32.25391 4.1393,0 7.4136,7e-5 10.688,0 17.9955,-1.8e-4 35.9942,-0.19116 53.9847,0.11048 5.7158,0.0958 9.9997,-1.42908 14.2105,-5.41889 15.4796,-14.66681 31.0062,-29.31482 47.1313,-43.25714 8.5225,-7.36895 14.5508,-14.89062 13.4581,-26.97253 -0.531,-5.87073 0.9362,-11.91968 1.4744,-17.89014 2.3922,-26.53638 4.8255,-53.06934 7.1458,-79.61206 1.7404,-19.90894 3.1217,-39.85205 5.1239,-59.73352 0.5637,-5.5979 -1.1896,-9.43213 -4.8643,-13.29394 -8.7268,-9.1717 -17.1771,-18.60773 -25.673,-27.99677 -1.6902,-1.86786 -3.0857,-4.00238 -4.8789,-6.35797 12.9702,-11.97504 25.3491,-23.57474 37.9512,-34.9267 3.4248,-3.08502 5.2306,-6.29703 5.5984,-11.03402 1.5207,-19.58903 3.525,-39.13996 5.2616,-58.7129 3.1788,-35.82907 6.1921,-71.67334 9.5503,-107.48541 0.477,-5.08859 -0.5369,-8.79874 -4.0465,-12.57016 -15.4362,-16.58758 -30.689,-33.34888 -45.8025,-50.23153 -3.1663,-3.53701 -6.4829,-4.95722 -11.2176,-4.89989 -18.9925,0.22989 -37.9895,0.11664 -56.9847,0.0712 -2.8998,-0.007 -5.7988,-0.32482 -9.1601,-0.52664 0.2893,-3.74006 0.496,-6.69941 0.7504,-9.65466 1.7709,-20.57381 3.388,-41.16309 5.4383,-61.70911 0.5504,-5.516 -1.1083,-9.39174 -4.8035,-13.32484 -12.3201,-13.11298 -24.48,-26.38574 -36.3606,-39.89684 -3.8517,-4.38008 -7.8935,-6.17709 -13.7566,-6.16993 -119.9701,0.1464 -239.9403,0.10524 -359.9105,0.1429 -2.4846,7.8e-4 -4.969,0.49276 -8.181,0.83253 1.5256,3.62468 2.5955,6.36521 3.8167,9.03665 9.273,20.28519 18.613,40.53977 27.8268,60.85167 1.3527,2.98198 3.2162,6.28246 3.0268,9.32233 -1.0491,16.83447 -2.6603,33.63391 -4.1626,51.43535 -57.0594,0 -113.0843,0 -170.0273,0 1.4668,4.03953 2.44,6.82395 3.485,9.5812 8.021,21.16364 16.1437,42.28955 24.0023,63.51322 1.3492,3.64322 2.3252,7.72049 2.1973,11.55462 -0.2884,8.64222 -1.3704,17.25827 -2.1396,25.88404 -3.7281,41.79907 -7.5115,83.59329 -11.1733,125.39816 -2.9934,34.17542 -5.7959,68.36761 -8.7677,102.54492 -3.8082,43.79816 -7.7817,87.58209 -11.4703,131.3902 -0.5447,6.46783 -2.1693,12.23871 -5.3506,17.9267 -12.9978,23.23962 -25.6842,46.6535 -37.9139,71.58276 z"
     id="path42"
     style="fill:#020202;fill-opacity:1" /><path
     fill="#020201"
     opacity="1"
     stroke="none"
     d="m 1815.8641,347.78064 c -3.8778,43.70865 -7.7966,86.49167 -11.404,129.3009 -0.4263,5.05768 -2.0642,8.61508 -5.8168,11.97391 -12.6265,11.30161 -24.9674,22.92206 -37.9458,34.90823 1.9611,2.4375 3.4647,4.50342 5.1681,6.38904 6.9241,7.66522 13.3875,15.85279 21.0162,22.7461 7.9657,7.19751 10.0514,15.1015 9.034,25.58807 -4.5023,46.40594 -8.2929,92.88092 -12.3676,139.32861 -0.1423,1.62183 -0.5659,3.21887 -0.9707,5.44489 -17.3555,0 -34.4449,0 -52.0191,0 0,-2.5495 -0.1683,-4.80481 0.025,-7.02875 3.8883,-44.79156 7.185,-89.64947 12.1268,-134.32532 1.4741,-13.32708 -1.1868,-22.76941 -10.9796,-31.59033 -8.1291,-7.32257 -14.9474,-16.10162 -22.3208,-24.25873 -0.4156,-0.45965 -0.5966,-1.13128 -1.2837,-2.4884 9.0571,-8.38873 17.7853,-17.58267 27.6551,-25.32001 11.1801,-8.76459 16.5033,-18.70642 17.2257,-33.53192 1.6521,-33.89996 5.6811,-67.68341 8.6939,-101.51868 0.3481,-3.91046 0.3769,-7.84939 0.5798,-12.35269 -26.3161,0 -51.8376,0 -78.4947,0 -3.911,44.05857 -7.8152,88.03913 -11.7629,132.50943 -120.043,0 -239.4985,0 -359.9143,0 4.6537,-53.12155 9.2612,-105.71502 13.9137,-158.823 17.4768,0 34.3121,0 52.532,0 -2.9831,44.22355 -7.9819,88.02213 -11.0489,132.5503 26.4644,0 51.9732,0 78.6705,0 7.745,-88.22495 15.4806,-176.34293 23.2761,-265.14423 76.2327,0 151.925,0 228.1136,0 -1.5293,17.42449 -3.0022,34.20841 -4.5379,51.7063 -67.27,0 -133.8032,0 -201.6163,0 -2.3778,26.70575 -4.6972,52.75449 -7.1314,80.09338 111.1502,0 221.8852,0 333.4489,0 -0.6726,8.50876 -1.2424,15.71695 -1.8648,23.8429 z"
     id="path58"
     style="fill:#020202;fill-opacity:1" /><path
     fill="#020202"
     opacity="1"
     stroke="none"
     d="m 1577.9998,857.37793 c -55.6152,-1.8e-4 -110.2303,-1.8e-4 -166.2749,-1.8e-4 0.3276,-17.85663 2.7193,-34.82239 4.314,-52.92841 67.111,0 133.9034,0 201.506,0 2.3725,-27.06262 4.6546,-53.09302 7.0399,-80.30298 -67.5914,0 -134.064,0 -201.6162,0 3.8648,-44.84985 7.6291,-88.53467 11.4544,-132.92688 -26.3324,0 -51.8366,0 -78.7855,0 -3.8946,43.78803 -7.8041,87.74457 -11.7663,132.29309 -17.2453,0 -34.0882,0 -52.4317,0 3.8668,-52.92071 9.0831,-105.66217 13.5954,-158.85052 120.1049,0 239.2727,0 359.9336,0 -8.5225,97.57471 -16.9958,194.58911 -25.5664,292.716 -20.5834,0 -40.4928,0 -61.4023,-1.2e-4 z"
     id="path60"
     style="fill:#020202;fill-opacity:1" /><path
     fill="#d3bb87"
     opacity="1"
     stroke="none"
     d="m 1168.3872,802.95667 c 12.5155,-24.13947 25.2019,-47.55335 38.1997,-70.79297 3.1813,-5.68799 4.8059,-11.45887 5.3506,-17.9267 3.6886,-43.80811 7.6621,-87.59204 11.4703,-131.3902 2.9718,-34.17731 5.7743,-68.3695 8.7677,-102.54492 3.6618,-41.80487 7.4452,-83.59909 11.1733,-125.39816 0.7692,-8.62577 1.8512,-17.24182 2.1396,-25.88404 0.1279,-3.83413 -0.8481,-7.9114 -2.1973,-11.55462 -7.8586,-21.22367 -15.9813,-42.34958 -24.0023,-63.51322 -1.045,-2.75725 -2.0182,-5.54167 -3.485,-9.5812 56.943,0 112.9679,0 170.0273,0 1.5023,-17.80144 3.1135,-34.60088 4.1626,-51.43535 0.1894,-3.03987 -1.6741,-6.34035 -3.0268,-9.32233 -9.2138,-20.3119 -18.5538,-40.56648 -27.8268,-60.85167 -1.2212,-2.67144 -2.2911,-5.41197 -3.8167,-9.03665 3.212,-0.33977 5.6964,-0.83175 8.181,-0.83253 119.9702,-0.0377 239.9404,0.004 359.9105,-0.1429 5.8631,-0.007 9.9049,1.78985 13.7566,6.16993 11.8806,13.5111 24.0405,26.78386 36.3606,39.89684 3.6952,3.9331 5.3539,7.80884 4.8035,13.32484 -2.0503,20.54602 -3.6674,41.1353 -5.4383,61.70911 -0.2544,2.95525 -0.4611,5.9146 -0.7504,9.65466 3.3613,0.20182 6.2603,0.5197 9.1601,0.52664 18.9952,0.0455 37.9922,0.15873 56.9847,-0.0712 4.7347,-0.0573 8.0513,1.36288 11.2176,4.89989 15.1135,16.88265 30.3663,33.64395 45.8025,50.23153 3.5096,3.77142 4.5235,7.48157 4.0465,12.57016 -3.3582,35.81207 -6.3715,71.65634 -9.5503,107.48541 -1.7366,19.57294 -3.7409,39.12387 -5.2616,58.7129 -0.3678,4.73699 -2.1736,7.949 -5.5984,11.03402 -12.6021,11.35196 -24.981,22.95166 -37.9512,34.9267 1.7932,2.35559 3.1887,4.49011 4.8789,6.35797 8.4959,9.38904 16.9462,18.82507 25.673,27.99677 3.6747,3.86181 5.428,7.69604 4.8643,13.29394 -2.0022,19.88147 -3.3835,39.82458 -5.1239,59.73352 -2.3203,26.54272 -4.7536,53.07568 -7.1458,79.61206 -0.5382,5.97046 -2.0054,12.01941 -1.4744,17.89014 1.0927,12.08191 -4.9356,19.60358 -13.4581,26.97253 -16.1251,13.94232 -31.6517,28.59033 -47.1313,43.25714 -4.2108,3.98981 -8.4947,5.51471 -14.2105,5.41889 -17.9905,-0.30164 -35.9892,-0.11066 -53.9847,-0.11048 -3.2744,7e-5 -6.5487,0 -10.688,0 -1.0629,11.20801 -2.0855,21.72846 -3.0523,32.25391 -1.2489,13.59778 -2.6656,27.18567 -3.561,40.80731 -0.3124,4.75428 -2.2111,7.96613 -5.6053,11.03998 -15.3138,13.86786 -30.5982,27.77502 -45.585,41.99268 -4.1969,3.98162 -8.4706,5.48236 -14.1797,5.4671 -61.651,-0.16516 -123.3024,-0.10303 -184.9537,-0.10303 -57.3191,6e-5 -114.6382,0 -171.9573,0 -3.2073,0 -6.4147,0 -11.0056,0 2.2568,-4.07715 3.6731,-6.96088 5.3773,-9.66309 12.6159,-20.0025 25.1445,-40.0628 38.0342,-59.88812 3.7451,-5.76031 6.0422,-11.62262 6.5019,-18.48163 0.9336,-13.932 2.2414,-27.83898 3.4998,-43.0205 -4.1609,-0.15125 -7.6453,-0.38654 -11.1296,-0.38825 -48.6546,-0.0241 -97.3092,-0.006 -145.9638,-0.0378 -3.6478,-0.002 -7.2955,-0.30963 -11.229,-1.26501 m 647.5294,-456.09379 c 0.5699,-7.20819 1.1397,-14.41638 1.8123,-22.92514 -111.5637,0 -222.2987,0 -333.4489,0 2.4342,-27.33889 4.7536,-53.38763 7.1314,-80.09338 67.8131,0 134.3463,0 201.6163,0 1.5357,-17.49789 3.0086,-34.28181 4.5379,-51.7063 -76.1886,0 -151.8809,0 -228.1136,0 -7.7955,88.8013 -15.5311,176.91928 -23.2761,265.14423 -26.6973,0 -52.2061,0 -78.6705,0 3.067,-44.52817 8.0658,-88.32675 11.0489,-132.5503 -18.2199,0 -35.0552,0 -52.532,0 -4.6525,53.10798 -9.26,105.70145 -13.9137,158.823 120.4158,0 239.8713,0 359.9143,0 3.9477,-44.4703 7.8519,-88.45086 11.7629,-132.50943 26.6571,0 52.1786,0 78.4947,0 -0.2029,4.5033 -0.2317,8.44223 -0.5798,12.35269 -3.0128,33.83527 -7.0418,67.61872 -8.6939,101.51868 -0.7224,14.8255 -6.0456,24.76733 -17.2257,33.53192 -9.8698,7.73734 -18.598,16.93128 -27.6551,25.32001 0.6871,1.35712 0.8681,2.02875 1.2837,2.4884 7.3734,8.15711 14.1917,16.93616 22.3208,24.25873 9.7928,8.82092 12.4537,18.26325 10.9796,31.59033 -4.9418,44.67585 -8.2385,89.53376 -12.1268,134.32532 -0.1932,2.22394 -0.025,4.47925 -0.025,7.02875 17.5742,0 34.6636,0 52.0191,0 0.4048,-2.22602 0.8284,-3.82306 0.9707,-5.44489 4.0747,-46.44769 7.8653,-92.92267 12.3676,-139.32861 1.0174,-10.48657 -1.0683,-18.39056 -9.034,-25.58807 -7.6287,-6.89331 -14.0921,-15.08088 -21.0162,-22.7461 -1.7034,-1.88562 -3.207,-3.95154 -5.1681,-6.38904 12.9784,-11.98617 25.3193,-23.60662 37.9458,-34.90823 3.7526,-3.35883 5.3905,-6.91623 5.8168,-11.97391 3.6074,-42.80923 7.5262,-85.59225 11.4565,-130.21866 m -236.9167,510.51517 c 19.9094,0 39.8188,0 60.4022,0 8.5706,-98.12689 17.0439,-195.14129 25.5664,-292.716 -120.6609,0 -239.8287,0 -359.9336,0 -4.5123,53.18835 -9.7286,105.92981 -13.5954,158.85052 18.3435,0 35.1864,0 52.4317,0 3.9622,-44.54852 7.8717,-88.50506 11.7663,-132.29309 26.9489,0 52.4531,0 78.7855,0 -3.8253,44.39221 -7.5896,88.07703 -11.4544,132.92688 67.5522,0 134.0248,0 201.6162,0 -2.3853,27.20996 -4.6674,53.24036 -7.0399,80.30298 -67.6026,0 -134.395,0 -201.506,0 -1.5947,18.10602 -3.9864,35.07178 -4.314,52.92841 56.0446,0 110.6597,0 167.275,3e-4 z"
     id="path56" /><path
     fill="#d3bc87"
     opacity="1"
     stroke="none"
     d="m 1795.0627,1.999996 c 13.2762,13.422717 25.6702,26.795376 37.941,40.280068 17.4426,19.168335 34.6878,38.517856 52.2743,57.552646 3.5938,3.88992 2.6707,8.07612 2.3767,12.1798 -0.7066,9.86209 -1.9447,19.68608 -3.0408,30.22212 2.4222,0.57337 4.5215,1.36889 6.6643,1.51088 3.6504,0.24196 7.3282,0.0762 10.9945,0.0765 18.5829,0.001 19.2731,0.69033 31.1438,14.62704 11.62,13.64238 23.8571,26.7603 35.8616,40.07385 17.0923,18.95603 34.2909,37.81723 51.2234,56.91463 1.7259,1.94659 2.8602,5.28607 2.7041,7.88513 -0.7347,12.2248 -1.9551,24.42249 -3.1151,36.61908 -1.8835,19.80008 -3.9339,39.58451 -5.7576,59.38992 -0.9725,10.56263 -1.5963,21.15702 -2.4162,31.73408 -1.3842,17.86386 -2.6591,35.73764 -4.2333,53.5849 -2.4465,27.73376 -5.0813,55.45104 -7.6824,83.17095 -1.857,19.7901 -3.898,39.56348 -5.6436,59.3631 -0.9324,10.57446 -1.2022,21.20752 -2.1421,31.78119 -1.8198,20.47296 -3.9417,40.91895 -5.8567,61.38373 -0.8333,8.90564 -1.4646,17.8302 -2.1889,26.74603 -2.1218,26.11737 -4.0951,52.24884 -6.5587,78.33393 -0.3016,3.19262 -2.6436,6.74304 -5.0531,9.08532 -8.0827,7.85736 -16.7028,15.15796 -24.9745,22.82556 -19.735,18.29352 -39.3153,36.75428 -59.1039,54.98938 -10.9744,10.11286 -22.3436,19.79767 -33.3098,29.91919 -2.9673,2.7389 -6.0121,3.72052 -9.8801,3.65082 -8.617,-0.15527 -17.2386,-0.0485 -26.9856,-0.0485 -0.8465,8.42566 -2.1748,16.20691 -2.2765,24.00415 -0.1341,10.29523 -3.7962,18.2121 -11.5437,25.15845 -20.512,18.39093 -40.4987,37.36651 -60.793,56.00196 -11.4965,10.5567 -23.2852,20.796 -34.7219,31.4156 -2.9239,2.715 -5.8345,4.2244 -9.774,3.8286 -1.3198,-0.1324 -2.6643,-0.018 -3.9975,-0.018 -195.9812,3e-4 -391.9625,5e-4 -587.9437,5e-4 -2.9787,0 -5.9573,-10e-5 -10.6725,-10e-5 2.1637,-4.2849 3.5851,-7.7359 5.5345,-10.8567 12.1381,-19.4313 24.3172,-38.83807 36.6348,-58.15594 11.0747,-17.36853 22.357,-34.60467 33.5166,-51.91925 1.9294,-2.99377 3.7036,-6.08746 6.5987,-10.86712 -16.8931,-0.49958 -32.0222,-0.20288 -47.1363,-0.25519 -15.3318,-0.053 -30.6637,-0.0117 -45.9956,-0.0117 -15.3319,0 -30.6637,0 -45.9956,0 -15.2571,0 -30.5141,0 -47.04342,0 5.17865,-9.41925 9.74462,-17.76654 14.34962,-26.09229 13.6581,-24.69342 27.3254,-49.38171 41.0005,-74.06567 13.6878,-24.70679 27.3719,-49.41577 41.0959,-74.10236 4.3512,-7.82678 8.3336,-15.91967 13.3548,-23.29876 8.1996,-12.04981 10.2417,-25.55469 11.4018,-39.55072 1.7254,-20.8169 3.9312,-41.59357 5.7767,-62.40119 0.9968,-11.24011 1.538,-22.52051 2.5181,-33.76233 1.7265,-19.80401 3.6699,-39.58905 5.4459,-59.38891 0.8299,-9.25415 1.3946,-18.53214 2.2311,-27.78562 1.8803,-20.79962 3.8745,-41.58893 5.7822,-62.38607 0.7577,-8.26059 1.4138,-16.53052 2.1079,-24.79691 1.3578,-16.17508 2.6416,-32.35681 4.097,-48.52307 0.6105,-6.78204 -0.6684,-12.91055 -3.2563,-19.34009 -9.1737,-22.7908 -17.5908,-45.88577 -26.3281,-68.85269 -9.5648,-25.14179 -19.2099,-50.25308 -28.7388,-75.40842 -7.0575,-18.63089 -13.9977,-37.30627 -20.9296,-55.98431 -0.3183,-0.85771 -0.041,-1.93651 -0.041,-4.40412 12.0984,-0.45063 24.2389,-0.14317 36.3584,-0.19912 11.9987,-0.0554 23.9977,-0.0121 35.9966,-0.0121 12.3322,0 24.6643,0 36.9965,0 11.9989,0 23.9977,0 35.9966,0 12.3001,0 24.6003,0 38.5904,0 C 1237.4944,110.57491 1226.7743,89.491911 1217.09,67.96913 1207.4146,46.466467 1197.709,24.977383 1188.0082,2.741076 1390.0417,2 1592.0836,2 1795.0627,1.999996 m 130.9728,787.004524 c 2.2022,-2.03577 4.2279,-4.31671 6.6438,-6.05548 4.7647,-3.42896 6.3399,-8.12055 6.7932,-13.72046 2.0702,-25.5669 4.319,-51.11933 6.514,-76.67609 2.879,-33.52228 5.732,-67.04681 8.6621,-100.56464 3.7712,-43.1397 7.6256,-86.27221 11.4095,-129.41085 2.2412,-25.55259 4.3892,-51.11338 6.6266,-76.66629 3.1089,-35.50684 6.1569,-71.01975 9.4978,-106.50495 0.577,-6.12887 -0.9052,-10.57599 -5.1865,-15.17035 -22.0393,-23.6506 -43.6929,-47.6604 -65.5189,-71.51028 -5.6148,-6.1355 -10.3342,-14.54904 -17.337,-17.55571 -7.3695,-3.16417 -16.9812,-1.18944 -25.6153,-1.30135 -8.5636,-0.11102 -17.1298,-0.0243 -26.0936,-0.0243 1.4322,-17.53563 2.418,-33.81834 4.2653,-50.0027 0.6747,-5.90978 -0.714,-9.95714 -4.6683,-14.23132 -21.7279,-23.486255 -43.2766,-47.140278 -64.6692,-70.932522 -3.8581,-4.291019 -7.828,-6.189788 -13.71,-6.185001 -175.9852,0.143311 -351.9704,0.114147 -527.9558,0.139496 -2.5022,3.62e-4 -5.0044,0.347824 -8.8828,0.635303 20.0913,43.935036 39.6599,86.727174 59.758,130.676964 -63.7712,0 -125.9811,0 -189.4876,0 1.4827,4.38856 2.5176,7.79924 3.7764,11.12527 19.9115,52.61542 39.7419,105.26227 59.9205,157.77521 2.6193,6.81613 3.3909,13.34259 2.5921,20.4386 -1.3039,11.58289 -2.2641,23.2059 -3.2696,34.82065 -2.9309,33.85208 -5.7723,67.71197 -8.7237,101.56229 -3.7906,43.47265 -7.6486,86.93933 -11.4873,130.40771 -2.3151,26.21375 -4.4449,52.4469 -7.1416,78.62146 -0.5585,5.41949 -2.456,11.05823 -5.09,15.85205 -29.1897,53.12604 -58.6513,106.10266 -88.0191,159.13086 -1.725,3.11499 -3.2772,6.32562 -5.6127,10.85468 63.4151,0 125.4605,0 189.4445,0 -5.3401,8.53894 -9.6722,15.50079 -14.0399,22.4403 -4.6136,7.33057 -9.2577,14.64209 -13.895,21.95771 -4.459,7.03448 -8.9283,14.06237 -13.3895,21.09558 -4.6396,7.31421 -9.2758,14.63049 -13.9114,21.94708 -4.4575,7.03516 -9.1249,13.94842 -13.3096,21.14246 -4.2348,7.2804 -10.1961,13.6541 -12.859,22.4358 2.4525,0.1139 4.0858,0.256 5.7191,0.2562 176.9853,0.011 353.9705,-0.01 530.9556,0.1202 5.1086,0 8.7296,-1.6151 12.3689,-4.9897 26.6382,-24.70178 53.3975,-49.27368 80.2073,-73.78942 3.1263,-2.85883 4.9111,-5.83887 5.0788,-10.23664 0.2919,-7.64697 1.1842,-15.27331 1.9005,-22.90118 0.8938,-9.51917 1.8644,-19.03113 2.8903,-29.44434 14.6834,0 28.6166,-0.28845 42.5287,0.12787 6.458,0.1933 11.2524,-1.69763 15.9928,-6.11456 28.2859,-26.35584 56.8282,-52.4364 86.3276,-79.57562 z"
     id="path6" /></g>
</svg>
